<?xml version="1.0" encoding="UTF-8" standalone="no"?>
<!-- Created with Inkscape (http://www.inkscape.org/) -->

<svg
   xmlns:dc="http://purl.org/dc/elements/1.1/"
   xmlns:cc="http://creativecommons.org/ns#"
   xmlns:rdf="http://www.w3.org/1999/02/22-rdf-syntax-ns#"
   xmlns:svg="http://www.w3.org/2000/svg"
   xmlns="http://www.w3.org/2000/svg"
   xmlns:sodipodi="http://sodipodi.sourceforge.net/DTD/sodipodi-0.dtd"
   xmlns:inkscape="http://www.inkscape.org/namespaces/inkscape"
   width="140"
   height="100"
   viewBox="0 0 140 99.999997"
   id="svg2"
   version="1.1"
   inkscape:version="0.91 r13725"
   sodipodi:docname="argument.svg">
  <defs
     id="defs4" />
  <sodipodi:namedview
     id="base"
     pagecolor="#ffffff"
     bordercolor="#666666"
     borderopacity="1.0"
     inkscape:pageopacity="0.0"
     inkscape:pageshadow="2"
     inkscape:zoom="2.8284271"
     inkscape:cx="34.416861"
     inkscape:cy="39.291689"
     inkscape:document-units="px"
     inkscape:current-layer="layer1"
     showgrid="false"
     showguides="false"
     inkscape:window-width="1855"
     inkscape:window-height="1056"
     inkscape:window-x="65"
     inkscape:window-y="24"
     inkscape:window-maximized="1"
     units="px" />
  <metadata
     id="metadata7">
    <rdf:RDF>
      <cc:Work
         rdf:about="">
        <dc:format>image/svg+xml</dc:format>
        <dc:type
           rdf:resource="http://purl.org/dc/dcmitype/StillImage" />
        <dc:title />
      </cc:Work>
    </rdf:RDF>
  </metadata>
  <g
     inkscape:label="Layer 1"
     inkscape:groupmode="layer"
     id="layer1"
     transform="translate(0,-952.36224)">
    <g
       id="g4234"
       style="fill:#ffcc00"
       transform="matrix(0.5023567,0,0,0.50958263,-99.527024,759.35385)">
      <path
         style="color:#000000;display:inline;overflow:visible;visibility:visible;opacity:1;fill:#ffcc00;fill-opacity:1;fill-rule:nonzero;stroke:#000000;stroke-width:5.60169888;stroke-linecap:butt;stroke-linejoin:miter;stroke-miterlimit:4;stroke-dasharray:none;stroke-dashoffset:0;stroke-opacity:1;marker:none;enable-background:accumulate"
         d="m 330.32464,464.99948 a 70.141075,42.283932 0 0 1 70.14258,42.2832 70.141075,42.283932 0 0 1 -18.22656,28.36328 l 23.41016,20.125 -49.49219,-9.21484 a 70.141075,42.283932 0 0 1 -25.83399,3.01172 70.141075,42.283932 0 0 1 -70.14062,-42.28516 70.141075,42.283932 0 0 1 70.14062,-42.2832 z"
         id="path4210"
         inkscape:connector-curvature="0" />
      <path
         style="fill:#ffcc00;fill-rule:evenodd;stroke:#000000;stroke-width:8.40254879;stroke-linecap:square;stroke-linejoin:miter;stroke-miterlimit:4;stroke-dasharray:none;stroke-opacity:1"
         d="m 350.4024,522.47997 0,0.0998"
         id="path4212"
         inkscape:connector-curvature="0"
         sodipodi:nodetypes="cc" />
      <path
         sodipodi:nodetypes="cc"
         inkscape:connector-curvature="0"
         id="path4214"
         d="m 331.70528,522.47997 0,0.0998"
         style="fill:#ffcc00;fill-rule:evenodd;stroke:#000000;stroke-width:8.40254879;stroke-linecap:square;stroke-linejoin:miter;stroke-miterlimit:4;stroke-dasharray:none;stroke-opacity:1" />
      <path
         style="fill:#ffcc00;fill-rule:evenodd;stroke:#000000;stroke-width:8.40254879;stroke-linecap:square;stroke-linejoin:miter;stroke-miterlimit:4;stroke-dasharray:none;stroke-opacity:1"
         d="m 313.00811,522.47997 0,0.0998"
         id="path4216"
         inkscape:connector-curvature="0"
         sodipodi:nodetypes="cc" />
      <path
         inkscape:connector-curvature="0"
         id="path4218"
         d="m 330.32464,464.99948 a 70.141075,42.283932 0 0 1 70.14258,42.2832 70.141075,42.283932 0 0 1 -18.22656,28.36328 l 23.41016,20.125 -49.49219,-9.21484 a 70.141075,42.283932 0 0 1 -25.83399,3.01172 70.141075,42.283932 0 0 1 -70.14062,-42.28516 70.141075,42.283932 0 0 1 70.14062,-42.2832 z"
         style="color:#000000;display:inline;overflow:visible;visibility:visible;opacity:1;fill:#ffcc00;fill-opacity:1;fill-rule:nonzero;stroke:#000000;stroke-width:5.60169888;stroke-linecap:butt;stroke-linejoin:miter;stroke-miterlimit:4;stroke-dasharray:none;stroke-dashoffset:0;stroke-opacity:1;marker:none;enable-background:accumulate" />
      <path
         sodipodi:nodetypes="cc"
         inkscape:connector-curvature="0"
         id="path4220"
         d="m 350.4024,522.47997 0,0.0998"
         style="fill:#ffcc00;fill-rule:evenodd;stroke:#000000;stroke-width:8.40254879;stroke-linecap:square;stroke-linejoin:miter;stroke-miterlimit:4;stroke-dasharray:none;stroke-opacity:1" />
      <path
         style="fill:#ffcc00;fill-rule:evenodd;stroke:#000000;stroke-width:8.40254879;stroke-linecap:square;stroke-linejoin:miter;stroke-miterlimit:4;stroke-dasharray:none;stroke-opacity:1"
         d="m 331.70528,522.47997 0,0.0998"
         id="path4222"
         inkscape:connector-curvature="0"
         sodipodi:nodetypes="cc" />
      <path
         sodipodi:nodetypes="cc"
         inkscape:connector-curvature="0"
         id="path4224"
         d="m 313.00811,522.47997 0,0.0998"
         style="fill:#ffcc00;fill-rule:evenodd;stroke:#000000;stroke-width:8.40254879;stroke-linecap:square;stroke-linejoin:miter;stroke-miterlimit:4;stroke-dasharray:none;stroke-opacity:1" />
    </g>
    <g
       id="g4244"
       transform="matrix(-0.5023567,0,0,0.50958263,222.92246,739.17541)"
       style="fill:#ffaaaa;fill-opacity:1">
      <path
         inkscape:connector-curvature="0"
         id="path4246"
         d="m 330.32464,464.99948 a 70.141075,42.283932 0 0 1 70.14258,42.2832 70.141075,42.283932 0 0 1 -18.22656,28.36328 l 23.41016,20.125 -49.49219,-9.21484 a 70.141075,42.283932 0 0 1 -25.83399,3.01172 70.141075,42.283932 0 0 1 -70.14062,-42.28516 70.141075,42.283932 0 0 1 70.14062,-42.2832 z"
         style="color:#000000;display:inline;overflow:visible;visibility:visible;opacity:1;fill:#ffaaaa;fill-opacity:1;fill-rule:nonzero;stroke:#000000;stroke-width:5.60169888;stroke-linecap:butt;stroke-linejoin:miter;stroke-miterlimit:4;stroke-dasharray:none;stroke-dashoffset:0;stroke-opacity:1;marker:none;enable-background:accumulate" />
      <path
         sodipodi:nodetypes="cc"
         inkscape:connector-curvature="0"
         id="path4248"
         d="m 350.4024,522.47997 0,0.0998"
         style="fill:#ffaaaa;fill-rule:evenodd;stroke:#000000;stroke-width:8.40254879;stroke-linecap:square;stroke-linejoin:miter;stroke-miterlimit:4;stroke-dasharray:none;stroke-opacity:1;fill-opacity:1" />
      <path
         style="fill:#ffaaaa;fill-rule:evenodd;stroke:#000000;stroke-width:8.40254879;stroke-linecap:square;stroke-linejoin:miter;stroke-miterlimit:4;stroke-dasharray:none;stroke-opacity:1;fill-opacity:1"
         d="m 331.70528,522.47997 0,0.0998"
         id="path4250"
         inkscape:connector-curvature="0"
         sodipodi:nodetypes="cc" />
      <path
         sodipodi:nodetypes="cc"
         inkscape:connector-curvature="0"
         id="path4252"
         d="m 313.00811,522.47997 0,0.0998"
         style="fill:#ffaaaa;fill-rule:evenodd;stroke:#000000;stroke-width:8.40254879;stroke-linecap:square;stroke-linejoin:miter;stroke-miterlimit:4;stroke-dasharray:none;stroke-opacity:1;fill-opacity:1" />
      <path
         style="color:#000000;display:inline;overflow:visible;visibility:visible;opacity:1;fill:#ffaaaa;fill-opacity:1;fill-rule:nonzero;stroke:#000000;stroke-width:5.60169888;stroke-linecap:butt;stroke-linejoin:miter;stroke-miterlimit:4;stroke-dasharray:none;stroke-dashoffset:0;stroke-opacity:1;marker:none;enable-background:accumulate"
         d="m 330.32464,464.99948 a 70.141075,42.283932 0 0 1 70.14258,42.2832 70.141075,42.283932 0 0 1 -18.22656,28.36328 l 23.41016,20.125 -49.49219,-9.21484 a 70.141075,42.283932 0 0 1 -25.83399,3.01172 70.141075,42.283932 0 0 1 -70.14062,-42.28516 70.141075,42.283932 0 0 1 70.14062,-42.2832 z"
         id="path4254"
         inkscape:connector-curvature="0" />
      <path
         style="fill:#ffaaaa;fill-rule:evenodd;stroke:#000000;stroke-width:8.40254879;stroke-linecap:square;stroke-linejoin:miter;stroke-miterlimit:4;stroke-dasharray:none;stroke-opacity:1;fill-opacity:1"
         d="m 350.4024,522.47997 0,0.0998"
         id="path4256"
         inkscape:connector-curvature="0"
         sodipodi:nodetypes="cc" />
      <path
         sodipodi:nodetypes="cc"
         inkscape:connector-curvature="0"
         id="path4258"
         d="m 331.70528,522.47997 0,0.0998"
         style="fill:#ffaaaa;fill-rule:evenodd;stroke:#000000;stroke-width:8.40254879;stroke-linecap:square;stroke-linejoin:miter;stroke-miterlimit:4;stroke-dasharray:none;stroke-opacity:1;fill-opacity:1" />
      <path
         style="fill:#ffaaaa;fill-rule:evenodd;stroke:#000000;stroke-width:8.40254879;stroke-linecap:square;stroke-linejoin:miter;stroke-miterlimit:4;stroke-dasharray:none;stroke-opacity:1;fill-opacity:1"
         d="m 313.00811,522.47997 0,0.0998"
         id="path4260"
         inkscape:connector-curvature="0"
         sodipodi:nodetypes="cc" />
    </g>
    <g
       transform="matrix(0.5023567,0,0,0.50958263,-81.766031,725.48289)"
       id="g4262"
       style="fill:#aaee88;fill-opacity:1">
      <path
         style="color:#000000;display:inline;overflow:visible;visibility:visible;opacity:1;fill:#aaee88;fill-opacity:1;fill-rule:nonzero;stroke:#000000;stroke-width:5.60169888;stroke-linecap:butt;stroke-linejoin:miter;stroke-miterlimit:4;stroke-dasharray:none;stroke-dashoffset:0;stroke-opacity:1;marker:none;enable-background:accumulate"
         d="m 330.32464,464.99948 a 70.141075,42.283932 0 0 1 70.14258,42.2832 70.141075,42.283932 0 0 1 -18.22656,28.36328 l 23.41016,20.125 -49.49219,-9.21484 a 70.141075,42.283932 0 0 1 -25.83399,3.01172 70.141075,42.283932 0 0 1 -70.14062,-42.28516 70.141075,42.283932 0 0 1 70.14062,-42.2832 z"
         id="path4264"
         inkscape:connector-curvature="0" />
      <path
         style="fill:#aaee88;fill-rule:evenodd;stroke:#000000;stroke-width:8.40254879;stroke-linecap:square;stroke-linejoin:miter;stroke-miterlimit:4;stroke-dasharray:none;stroke-opacity:1;fill-opacity:1"
         d="m 350.4024,522.47997 0,0.0998"
         id="path4266"
         inkscape:connector-curvature="0"
         sodipodi:nodetypes="cc" />
      <path
         sodipodi:nodetypes="cc"
         inkscape:connector-curvature="0"
         id="path4268"
         d="m 331.70528,522.47997 0,0.0998"
         style="fill:#aaee88;fill-rule:evenodd;stroke:#000000;stroke-width:8.40254879;stroke-linecap:square;stroke-linejoin:miter;stroke-miterlimit:4;stroke-dasharray:none;stroke-opacity:1;fill-opacity:1" />
      <path
         style="fill:#aaee88;fill-rule:evenodd;stroke:#000000;stroke-width:8.40254879;stroke-linecap:square;stroke-linejoin:miter;stroke-miterlimit:4;stroke-dasharray:none;stroke-opacity:1;fill-opacity:1"
         d="m 313.00811,522.47997 0,0.0998"
         id="path4270"
         inkscape:connector-curvature="0"
         sodipodi:nodetypes="cc" />
      <path
         inkscape:connector-curvature="0"
         id="path4272"
         d="m 330.32464,464.99948 a 70.141075,42.283932 0 0 1 70.14258,42.2832 70.141075,42.283932 0 0 1 -18.22656,28.36328 l 23.41016,20.125 -49.49219,-9.21484 a 70.141075,42.283932 0 0 1 -25.83399,3.01172 70.141075,42.283932 0 0 1 -70.14062,-42.28516 70.141075,42.283932 0 0 1 70.14062,-42.2832 z"
         style="color:#000000;display:inline;overflow:visible;visibility:visible;opacity:1;fill:#aaee88;fill-opacity:1;fill-rule:nonzero;stroke:#000000;stroke-width:5.60169888;stroke-linecap:butt;stroke-linejoin:miter;stroke-miterlimit:4;stroke-dasharray:none;stroke-dashoffset:0;stroke-opacity:1;marker:none;enable-background:accumulate" />
      <path
         sodipodi:nodetypes="cc"
         inkscape:connector-curvature="0"
         id="path4274"
         d="m 350.4024,522.47997 0,0.0998"
         style="fill:#aaee88;fill-rule:evenodd;stroke:#000000;stroke-width:8.40254879;stroke-linecap:square;stroke-linejoin:miter;stroke-miterlimit:4;stroke-dasharray:none;stroke-opacity:1;fill-opacity:1" />
      <path
         style="fill:#aaee88;fill-rule:evenodd;stroke:#000000;stroke-width:8.40254879;stroke-linecap:square;stroke-linejoin:miter;stroke-miterlimit:4;stroke-dasharray:none;stroke-opacity:1;fill-opacity:1"
         d="m 331.70528,522.47997 0,0.0998"
         id="path4276"
         inkscape:connector-curvature="0"
         sodipodi:nodetypes="cc" />
      <path
         sodipodi:nodetypes="cc"
         inkscape:connector-curvature="0"
         id="path4278"
         d="m 313.00811,522.47997 0,0.0998"
         style="fill:#aaee88;fill-rule:evenodd;stroke:#000000;stroke-width:8.40254879;stroke-linecap:square;stroke-linejoin:miter;stroke-miterlimit:4;stroke-dasharray:none;stroke-opacity:1;fill-opacity:1" />
    </g>
  </g>
</svg>
